<svg xmlns="http://www.w3.org/2000/svg" viewBox="0 0 256 256" fill="none" stroke-linecap="round" stroke-linejoin="round" stroke-width="12">
  <g stroke="#d63977">
    <path d="M 50.06 83.00 A 90 90 0 0 1 109.29 39.97"/>
    <path d="M 146.71 39.97 A 90 90 0 0 1 205.94 83.00"/>
    <path d="M 217.51 118.59 A 90 90 0 0 1 194.88 188.22"/>
    <path d="M 164.60 210.21 A 90 90 0 0 1 91.40 210.21"/>
    <path d="M 61.12 188.22 A 90 90 0 0 1 38.49 118.59"/>
    <circle cx="128" cy="38" r="13"/>
    <circle cx="213.6" cy="100.2" r="13"/>
    <circle cx="180.9" cy="200.8" r="13"/>
    <circle cx="75.1" cy="200.8" r="13"/>
    <circle cx="42.4" cy="100.2" r="13"/>
  </g>
  <g stroke="#13162a">
    <polyline points="100,103 126,128 100,153"/>
    <line x1="130" y1="153" x2="156" y2="153"/>
  </g>
</svg>
